<svg width="140" height="122" viewBox="0 0 140 122" fill="none" xmlns="http://www.w3.org/2000/svg">
<rect width="140" height="122" fill="white"/>
<path d="M17.58 67.364C16.2453 67.364 15.006 67.208 13.862 66.896C12.7353 66.584 11.8687 66.1767 11.262 65.674C10.9673 64.2873 10.82 62.8487 10.82 61.358C10.82 58.81 11.262 56.418 12.146 54.182C13.03 51.9287 14.3907 50.1347 16.228 48.8L21.246 51.972C18.854 53.4973 16.956 55.4387 15.552 57.796C14.148 60.1533 13.446 62.528 13.446 64.92C14.3993 65.1107 15.3353 65.206 16.254 65.206C17.19 65.206 18.0307 65.1193 18.776 64.946L18.256 59.252L23.196 58.94L21.636 68.092L19.088 68.3L18.984 67.286C18.516 67.338 18.048 67.364 17.58 67.364ZM36.6685 62.216C36.6685 64.1053 36.2525 65.4833 35.4205 66.35C34.6058 67.1993 33.0891 67.624 30.8705 67.624C28.6518 67.624 26.9185 67.1213 25.6705 66.116C25.4105 64.868 25.2805 63.62 25.2805 62.372C25.2805 61.124 25.4538 59.954 25.8005 58.862C26.1645 57.7527 26.6151 56.808 27.1525 56.028C28.2791 54.4333 29.2845 53.4193 30.1685 52.986C31.8325 53.8353 33.2971 54.988 34.5625 56.444C35.9665 58.0387 36.6685 59.9627 36.6685 62.216ZM33.6525 61.514C33.6525 59.8673 33.3058 58.3593 32.6125 56.99C31.1738 57.7527 29.9865 58.914 29.0505 60.474C28.1145 62.034 27.6465 63.6113 27.6465 65.206C28.2011 65.31 28.9985 65.362 30.0385 65.362C31.0785 65.362 32.1445 65.18 33.2365 64.816C33.5138 63.7587 33.6525 62.658 33.6525 61.514ZM50.1647 53.402C50.4767 53.402 50.7887 53.454 51.1007 53.558C51.9847 54.6327 52.5914 56.496 52.9207 59.148C53.25 61.7827 53.4147 64.4 53.4147 67L48.7347 67.39C48.7347 63.4033 48.5874 59.772 48.2927 56.496C45.9874 57.3453 44.4534 60.8987 43.6907 67.156L41.1167 67.39L39.7907 49.242L45.3547 48.384L44.3927 59.096H44.6267C45.3374 57.3453 46.1694 55.9587 47.1227 54.936C48.0934 53.9133 49.1074 53.402 50.1647 53.402ZM61.4237 52.986C65.6184 54.6673 67.7157 56.756 67.7157 59.252C67.7157 60.552 67.3431 61.4967 66.5977 62.086C65.8697 62.658 64.5091 62.944 62.5157 62.944C61.2504 62.944 60.2104 62.8487 59.3957 62.658C59.0664 63.4727 58.9017 64.322 58.9017 65.206C59.6817 65.31 60.5657 65.362 61.5537 65.362C63.3564 65.362 65.0551 65.076 66.6497 64.504L67.4297 67.026C66.1644 67.4247 64.7431 67.624 63.1657 67.624C60.3577 67.624 58.2951 67.1127 56.9777 66.09C56.7004 64.8593 56.5617 63.698 56.5617 62.606C56.5617 60.422 57.0384 58.4547 57.9917 56.704C58.9624 54.9533 60.1064 53.714 61.4237 52.986ZM59.9157 61.436C60.1411 61.4533 60.7044 61.462 61.6057 61.462C62.5244 61.462 63.5731 61.3407 64.7517 61.098C64.8037 60.7687 64.8297 60.4393 64.8297 60.11C64.8297 59.07 64.5437 58.0733 63.9717 57.12C62.2557 58.264 60.9037 59.7027 59.9157 61.436ZM72.6604 67.598C72.3657 67.598 72.1491 67.5893 72.0104 67.572C71.4211 67.1733 70.9444 66.584 70.5804 65.804C70.2337 65.0067 70.0604 64.1833 70.0604 63.334C70.0604 62.2247 70.4764 61.4187 71.3084 60.916C72.1577 60.4133 73.7091 60.162 75.9624 60.162C76.7944 60.162 77.6611 60.2227 78.5624 60.344L78.5104 59.772C78.4411 59.0787 78.1117 58.5327 77.5224 58.134C76.9331 57.718 76.1791 57.51 75.2604 57.51C74.3417 57.51 73.4231 57.796 72.5044 58.368L71.3604 54.598C72.8511 53.9913 74.5497 53.688 76.4564 53.688C78.3631 53.688 79.8711 54.1213 80.9804 54.988C82.0897 55.8373 82.6444 57.172 82.6444 58.992C82.6444 59.408 82.6271 59.7373 82.5924 59.98L81.8644 67.156L79.2904 67.39L78.9004 63.62H78.6924C78.1031 64.868 77.2884 65.8473 76.2484 66.558C75.2084 67.2513 74.0124 67.598 72.6604 67.598ZM78.6664 61.436L77.2884 61.41C76.1444 61.41 75.2084 61.4707 74.4804 61.592C74.2377 62.0773 74.1164 62.5107 74.1164 62.892C74.1164 63.2733 74.1684 63.6373 74.2724 63.984C74.3764 64.3307 74.4891 64.5647 74.6104 64.686C76.6904 64.3567 78.0424 63.2733 78.6664 61.436ZM90.5764 53.662L92.2924 63.62H92.5004L95.8544 53.74L97.9604 54.312L92.8904 67.052L90.7844 67.39L85.0124 54.52L90.5764 53.662ZM104.892 52.986C109.087 54.6673 111.184 56.756 111.184 59.252C111.184 60.552 110.812 61.4967 110.066 62.086C109.338 62.658 107.978 62.944 105.984 62.944C104.719 62.944 103.679 62.8487 102.864 62.658C102.535 63.4727 102.37 64.322 102.37 65.206C103.15 65.31 104.034 65.362 105.022 65.362C106.825 65.362 108.524 65.076 110.118 64.504L110.898 67.026C109.633 67.4247 108.212 67.624 106.634 67.624C103.826 67.624 101.764 67.1127 100.446 66.09C100.169 64.8593 100.03 63.698 100.03 62.606C100.03 60.422 100.507 58.4547 101.46 56.704C102.431 54.9533 103.575 53.714 104.892 52.986ZM103.384 61.436C103.61 61.4533 104.173 61.462 105.074 61.462C105.993 61.462 107.042 61.3407 108.22 61.098C108.272 60.7687 108.298 60.4393 108.298 60.11C108.298 59.07 108.012 58.0733 107.44 57.12C105.724 58.264 104.372 59.7027 103.384 61.436ZM124.657 53.402C124.986 53.402 125.307 53.454 125.619 53.558C126.503 54.6327 127.11 56.496 127.439 59.148C127.768 61.7827 127.933 64.4 127.933 67L123.253 67.39C123.253 63.4033 123.106 59.772 122.811 56.496C120.506 57.3453 118.972 60.8987 118.209 67.156L115.635 67.39L114.309 54.494L119.873 53.636L119.301 58.212H119.535C120.228 56.704 121.017 55.5253 121.901 54.676C122.785 53.8267 123.704 53.402 124.657 53.402Z" fill="#1D352A"/>
<path d="M54.8384 51.6049L68.5902 49.472" stroke="#1D352A" stroke-linecap="round"/>
</svg>
