<svg width="287" height="69" viewBox="0 0 287 69" fill="none" xmlns="http://www.w3.org/2000/svg">
<rect width="287" height="69" fill="white"/>
<path d="M36.49 53.742C33.7693 53.742 31.243 53.424 28.911 52.788C26.6143 52.152 24.8477 51.3217 23.611 50.297C23.0103 47.4703 22.71 44.5377 22.71 41.499C22.71 36.305 23.611 31.429 25.413 26.871C27.215 22.2777 29.9887 18.6207 33.734 15.9L43.963 22.366C39.087 25.4753 35.218 29.4327 32.356 34.238C29.494 39.0433 28.063 43.884 28.063 48.76C30.0063 49.1487 31.9143 49.343 33.787 49.343C35.695 49.343 37.4087 49.1663 38.928 48.813L37.868 37.206L47.938 36.57L44.758 55.226L39.564 55.65L39.352 53.583C38.398 53.689 37.444 53.742 36.49 53.742ZM75.4011 43.248C75.4011 47.0993 74.5531 49.9083 72.8571 51.675C71.1964 53.4063 68.1048 54.272 63.5821 54.272C59.0594 54.272 55.5261 53.2473 52.9821 51.198C52.4521 48.654 52.1871 46.11 52.1871 43.566C52.1871 41.022 52.5404 38.637 53.2471 36.411C53.9891 34.1497 54.9078 32.224 56.0031 30.634C58.2998 27.3833 60.3491 25.3163 62.1511 24.433C65.5431 26.1643 68.5288 28.514 71.1081 31.482C73.9701 34.7327 75.4011 38.6547 75.4011 43.248ZM69.2531 41.817C69.2531 38.4603 68.5464 35.3863 67.1331 32.595C64.2004 34.1497 61.7801 36.517 59.8721 39.697C57.9641 42.877 57.0101 46.0923 57.0101 49.343C58.1408 49.555 59.7661 49.661 61.8861 49.661C64.0061 49.661 66.1791 49.29 68.4051 48.548C68.9704 46.3927 69.2531 44.149 69.2531 41.817ZM102.913 25.281C103.549 25.281 104.185 25.387 104.821 25.599C106.623 27.7897 107.859 31.588 108.531 36.994C109.202 42.3647 109.538 47.7 109.538 53L99.9977 53.795C99.9977 45.6683 99.6973 38.266 99.0967 31.588C94.3973 33.3193 91.2703 40.5627 89.7157 53.318L84.4687 53.795L81.7657 16.801L93.1077 15.052L91.1467 36.888H91.6237C93.0723 33.3193 94.7683 30.4927 96.7117 28.408C98.6903 26.3233 100.757 25.281 102.913 25.281ZM125.864 24.433C134.414 27.8603 138.69 32.118 138.69 37.206C138.69 39.856 137.93 41.7817 136.411 42.983C134.927 44.149 132.153 44.732 128.09 44.732C125.51 44.732 123.39 44.5377 121.73 44.149C121.058 45.8097 120.723 47.541 120.723 49.343C122.313 49.555 124.115 49.661 126.129 49.661C129.803 49.661 133.266 49.078 136.517 47.912L138.107 53.053C135.527 53.8657 132.63 54.272 129.415 54.272C123.691 54.272 119.486 53.2297 116.801 51.145C116.235 48.6363 115.953 46.269 115.953 44.043C115.953 39.591 116.924 35.5807 118.868 32.012C120.846 28.4433 123.178 25.917 125.864 24.433ZM122.79 41.658C123.249 41.6933 124.397 41.711 126.235 41.711C128.107 41.711 130.245 41.4637 132.648 40.969C132.754 40.2977 132.807 39.6263 132.807 38.955C132.807 36.835 132.224 34.8033 131.058 32.86C127.56 35.192 124.804 38.1247 122.79 41.658ZM148.769 54.219C148.169 54.219 147.727 54.2013 147.444 54.166C146.243 53.3533 145.271 52.152 144.529 50.562C143.823 48.9367 143.469 47.2583 143.469 45.527C143.469 43.2657 144.317 41.6227 146.013 40.598C147.745 39.5733 150.907 39.061 155.5 39.061C157.196 39.061 158.963 39.1847 160.8 39.432L160.694 38.266C160.553 36.8527 159.882 35.7397 158.68 34.927C157.479 34.079 155.942 33.655 154.069 33.655C152.197 33.655 150.324 34.238 148.451 35.404L146.119 27.719C149.158 26.4823 152.621 25.864 156.507 25.864C160.394 25.864 163.468 26.7473 165.729 28.514C167.991 30.2453 169.121 32.966 169.121 36.676C169.121 37.524 169.086 38.1953 169.015 38.69L167.531 53.318L162.284 53.795L161.489 46.11H161.065C159.864 48.654 158.203 50.6503 156.083 52.099C153.963 53.5123 151.525 54.219 148.769 54.219ZM161.012 41.658L158.203 41.605C155.871 41.605 153.963 41.7287 152.479 41.976C151.985 42.9653 151.737 43.8487 151.737 44.626C151.737 45.4033 151.843 46.1453 152.055 46.852C152.267 47.5587 152.497 48.0357 152.744 48.283C156.984 47.6117 159.74 45.4033 161.012 41.658ZM185.29 25.811L188.788 46.11H189.212L196.049 25.97L200.342 27.136L190.007 53.106L185.714 53.795L173.948 27.56L185.29 25.811ZM214.473 24.433C223.024 27.8603 227.299 32.118 227.299 37.206C227.299 39.856 226.539 41.7817 225.02 42.983C223.536 44.149 220.762 44.732 216.699 44.732C214.12 44.732 212 44.5377 210.339 44.149C209.668 45.8097 209.332 47.541 209.332 49.343C210.922 49.555 212.724 49.661 214.738 49.661C218.413 49.661 221.875 49.078 225.126 47.912L226.716 53.053C224.137 53.8657 221.239 54.272 218.024 54.272C212.3 54.272 208.095 53.2297 205.41 51.145C204.845 48.6363 204.562 46.269 204.562 44.043C204.562 39.591 205.534 35.5807 207.477 32.012C209.456 28.4433 211.788 25.917 214.473 24.433ZM211.399 41.658C211.858 41.6933 213.007 41.711 214.844 41.711C216.717 41.711 218.854 41.4637 221.257 40.969C221.363 40.2977 221.416 39.6263 221.416 38.955C221.416 36.835 220.833 34.8033 219.667 32.86C216.169 35.192 213.413 38.1247 211.399 41.658ZM254.763 25.281C255.434 25.281 256.088 25.387 256.724 25.599C258.526 27.7897 259.762 31.588 260.434 36.994C261.105 42.3647 261.441 47.7 261.441 53L251.901 53.795C251.901 45.6683 251.6 38.266 251 31.588C246.3 33.3193 243.173 40.5627 241.619 53.318L236.372 53.795L233.669 27.507L245.011 25.758L243.845 35.086H244.322C245.735 32.012 247.343 29.6093 249.145 27.878C250.947 26.1467 252.819 25.281 254.763 25.281Z" fill="#02FF8B"/>
<mask id="path-2-outside-1_2_6" maskUnits="userSpaceOnUse" x="21" y="14" width="237" height="43" fill="black">
<rect fill="white" x="21" y="14" width="237" height="43"/>
<path d="M36.16 53.728C33.4907 53.728 31.012 53.416 28.724 52.792C26.4707 52.168 24.7373 51.3533 23.524 50.348C22.9347 47.5747 22.64 44.6973 22.64 41.716C22.64 36.62 23.524 31.836 25.292 27.364C27.06 22.8573 29.7813 19.2693 33.456 16.6L43.492 22.944C38.708 25.9947 34.912 29.8773 32.104 34.592C29.296 39.3067 27.892 44.056 27.892 48.84C29.7987 49.2213 31.6707 49.412 33.508 49.412C35.38 49.412 37.0613 49.2387 38.552 48.892L37.512 37.504L47.392 36.88L44.272 55.184L39.176 55.6L38.968 53.572C38.032 53.676 37.096 53.728 36.16 53.728ZM74.3369 43.432C74.3369 47.2107 73.5049 49.9667 71.8409 51.7C70.2116 53.3987 67.1783 54.248 62.7409 54.248C58.3036 54.248 54.8369 53.2427 52.3409 51.232C51.8209 48.736 51.5609 46.24 51.5609 43.744C51.5609 41.248 51.9076 38.908 52.6009 36.724C53.3289 34.5053 54.2303 32.616 55.3049 31.056C57.5583 27.8667 59.5689 25.8387 61.3369 24.972C64.6649 26.6707 67.5943 28.976 70.1249 31.888C72.9329 35.0773 74.3369 38.9253 74.3369 43.432ZM68.3049 42.028C68.3049 38.7347 67.6116 35.7187 66.2249 32.98C63.3476 34.5053 60.9729 36.828 59.1009 39.948C57.2289 43.068 56.2929 46.2227 56.2929 49.412C57.4023 49.62 58.9969 49.724 61.0769 49.724C63.1569 49.724 65.2889 49.36 67.4729 48.632C68.0276 46.5173 68.3049 44.316 68.3049 42.028ZM101.329 25.804C101.953 25.804 102.577 25.908 103.201 26.116C104.969 28.2653 106.183 31.992 106.841 37.296C107.5 42.5653 107.829 47.8 107.829 53L98.4694 53.78C98.4694 45.8067 98.1747 38.544 97.5854 31.992C92.9747 33.6907 89.9067 40.7973 88.3814 53.312L83.2334 53.78L80.5814 17.484L91.7094 15.768L89.7854 37.192H90.2534C91.6747 33.6907 93.3387 30.9173 95.2454 28.872C97.1867 26.8267 99.2147 25.804 101.329 25.804ZM123.847 24.972C132.237 28.3347 136.431 32.512 136.431 37.504C136.431 40.104 135.686 41.9933 134.195 43.172C132.739 44.316 130.018 44.888 126.031 44.888C123.501 44.888 121.421 44.6973 119.791 44.316C119.133 45.9453 118.803 47.644 118.803 49.412C120.363 49.62 122.131 49.724 124.107 49.724C127.713 49.724 131.11 49.152 134.299 48.008L135.859 53.052C133.329 53.8493 130.486 54.248 127.331 54.248C121.715 54.248 117.59 53.2253 114.955 51.18C114.401 48.7187 114.123 46.396 114.123 44.212C114.123 39.844 115.077 35.9093 116.983 32.408C118.925 28.9067 121.213 26.428 123.847 24.972ZM120.831 41.872C121.282 41.9067 122.409 41.924 124.211 41.924C126.049 41.924 128.146 41.6813 130.503 41.196C130.607 40.5373 130.659 39.8787 130.659 39.22C130.659 37.14 130.087 35.1467 128.943 33.24C125.511 35.528 122.807 38.4053 120.831 41.872ZM146.321 54.196C145.731 54.196 145.298 54.1787 145.021 54.144C143.842 53.3467 142.889 52.168 142.161 50.608C141.467 49.0133 141.121 47.3667 141.121 45.668C141.121 43.4493 141.953 41.8373 143.617 40.832C145.315 39.8267 148.418 39.324 152.925 39.324C154.589 39.324 156.322 39.4453 158.125 39.688L158.021 38.544C157.882 37.1573 157.223 36.0653 156.045 35.268C154.866 34.436 153.358 34.02 151.521 34.02C149.683 34.02 147.846 34.592 146.009 35.736L143.721 28.196C146.702 26.9827 150.099 26.376 153.913 26.376C157.726 26.376 160.742 27.2427 162.961 28.976C165.179 30.6747 166.289 33.344 166.289 36.984C166.289 37.816 166.254 38.4747 166.185 38.96L164.729 53.312L159.581 53.78L158.801 46.24H158.385C157.206 48.736 155.577 50.6947 153.497 52.116C151.417 53.5027 149.025 54.196 146.321 54.196ZM158.333 41.872L155.577 41.82C153.289 41.82 151.417 41.9413 149.961 42.184C149.475 43.1547 149.233 44.0213 149.233 44.784C149.233 45.5467 149.337 46.2747 149.545 46.968C149.753 47.6613 149.978 48.1293 150.221 48.372C154.381 47.7133 157.085 45.5467 158.333 41.872ZM182.153 26.324L185.585 46.24H186.001L192.709 26.48L196.921 27.624L186.781 53.104L182.569 53.78L171.025 28.04L182.153 26.324ZM210.785 24.972C219.174 28.3347 223.369 32.512 223.369 37.504C223.369 40.104 222.624 41.9933 221.133 43.172C219.677 44.316 216.956 44.888 212.969 44.888C210.438 44.888 208.358 44.6973 206.729 44.316C206.07 45.9453 205.741 47.644 205.741 49.412C207.301 49.62 209.069 49.724 211.045 49.724C214.65 49.724 218.048 49.152 221.237 48.008L222.797 53.052C220.266 53.8493 217.424 54.248 214.269 54.248C208.653 54.248 204.528 53.2253 201.893 51.18C201.338 48.7187 201.061 46.396 201.061 44.212C201.061 39.844 202.014 35.9093 203.921 32.408C205.862 28.9067 208.15 26.428 210.785 24.972ZM207.769 41.872C208.22 41.9067 209.346 41.924 211.149 41.924C212.986 41.924 215.084 41.6813 217.441 41.196C217.545 40.5373 217.597 39.8787 217.597 39.22C217.597 37.14 217.025 35.1467 215.881 33.24C212.449 35.528 209.745 38.4053 207.769 41.872ZM250.314 25.804C250.973 25.804 251.614 25.908 252.238 26.116C254.006 28.2653 255.22 31.992 255.878 37.296C256.537 42.5653 256.866 47.8 256.866 53L247.506 53.78C247.506 45.8067 247.212 38.544 246.622 31.992C242.012 33.6907 238.944 40.7973 237.418 53.312L232.27 53.78L229.618 27.988L240.746 26.272L239.602 35.424H240.07C241.457 32.408 243.034 30.0507 244.802 28.352C246.57 26.6533 248.408 25.804 250.314 25.804Z"/>
</mask>
<path d="M28.724 52.792L28.4571 53.7557L28.4609 53.7568L28.724 52.792ZM23.524 50.348L22.5458 50.5559L22.6181 50.8961L22.886 51.118L23.524 50.348ZM25.292 27.364L26.222 27.7317L26.2229 27.7292L25.292 27.364ZM33.456 16.6L33.9903 15.7547L33.417 15.3923L32.8683 15.7909L33.456 16.6ZM43.492 22.944L44.0297 23.7872L45.3577 22.9403L44.0263 22.0987L43.492 22.944ZM32.104 34.592L32.9632 35.1037L32.104 34.592ZM27.892 48.84H26.892V49.6598L27.6959 49.8206L27.892 48.84ZM38.552 48.892L38.7785 49.866L39.6271 49.6687L39.5479 48.8011L38.552 48.892ZM37.512 37.504L37.449 36.506L36.4226 36.5708L36.5161 37.5949L37.512 37.504ZM47.392 36.88L48.3778 37.048L48.5901 35.8023L47.329 35.882L47.392 36.88ZM44.272 55.184L44.3534 56.1807L45.1273 56.1175L45.2578 55.352L44.272 55.184ZM39.176 55.6L38.1812 55.702L38.2812 56.6764L39.2574 56.5967L39.176 55.6ZM38.968 53.572L39.9628 53.47L39.8599 52.4667L38.8576 52.5781L38.968 53.572ZM36.16 52.728C33.5686 52.728 31.1794 52.4251 28.9871 51.8272L28.4609 53.7568C30.8446 54.4069 33.4127 54.728 36.16 54.728V52.728ZM28.9909 51.8283C26.8135 51.2253 25.2272 50.4606 24.162 49.578L22.886 51.118C24.2475 52.2461 26.1279 53.1107 28.4571 53.7557L28.9909 51.8283ZM24.5022 50.1401C23.9281 47.4386 23.64 44.6311 23.64 41.716H21.64C21.64 44.7636 21.9413 47.7108 22.5458 50.5559L24.5022 50.1401ZM23.64 41.716C23.64 36.7383 24.503 32.0797 26.222 27.7317L24.362 26.9963C22.545 31.5923 21.64 36.5017 21.64 41.716H23.64ZM26.2229 27.7292C27.926 23.388 30.5338 19.9587 34.0437 17.4091L32.8683 15.7909C29.0289 18.5799 26.194 22.3267 24.3611 26.9988L26.2229 27.7292ZM32.9217 17.4453L42.9577 23.7893L44.0263 22.0987L33.9903 15.7547L32.9217 17.4453ZM42.9543 22.1008C38.0434 25.2325 34.1354 29.2269 31.2448 34.0803L32.9632 35.1037C35.6886 30.5277 39.3726 26.7569 44.0297 23.7872L42.9543 22.1008ZM31.2448 34.0803C28.3585 38.9266 26.892 43.8507 26.892 48.84H28.892C28.892 44.2613 30.2335 39.6868 32.9632 35.1037L31.2448 34.0803ZM27.6959 49.8206C29.6634 50.2141 31.6011 50.412 33.508 50.412V48.412C31.7402 48.412 29.9339 48.2286 28.0881 47.8594L27.6959 49.8206ZM33.508 50.412C35.44 50.412 37.1993 50.2333 38.7785 49.866L38.3255 47.918C36.9234 48.2441 35.32 48.412 33.508 48.412V50.412ZM39.5479 48.8011L38.5079 37.4131L36.5161 37.5949L37.5561 48.9829L39.5479 48.8011ZM37.575 38.502L47.455 37.878L47.329 35.882L37.449 36.506L37.575 38.502ZM46.4062 36.712L43.2862 55.016L45.2578 55.352L48.3778 37.048L46.4062 36.712ZM44.1906 54.1873L39.0946 54.6033L39.2574 56.5967L44.3534 56.1807L44.1906 54.1873ZM40.1708 55.498L39.9628 53.47L37.9732 53.674L38.1812 55.702L40.1708 55.498ZM38.8576 52.5781C37.958 52.6781 37.0589 52.728 36.16 52.728V54.728C37.1331 54.728 38.106 54.6739 39.0784 54.5659L38.8576 52.5781ZM71.8409 51.7L71.1196 51.0075L71.1193 51.0078L71.8409 51.7ZM52.3409 51.232L51.362 51.436L51.4349 51.7863L51.7136 52.0108L52.3409 51.232ZM52.6009 36.724L51.6507 36.4122L51.6478 36.4214L52.6009 36.724ZM55.3049 31.056L54.4882 30.4789L54.4814 30.4887L55.3049 31.056ZM61.3369 24.972L61.7916 24.0813L61.346 23.8539L60.8968 24.0741L61.3369 24.972ZM70.1249 31.888L69.3701 32.544L69.3744 32.5488L70.1249 31.888ZM66.2249 32.98L67.1171 32.5283L66.6568 31.6192L65.7566 32.0965L66.2249 32.98ZM56.2929 49.412H55.2929V50.2419L56.1087 50.3949L56.2929 49.412ZM67.4729 48.632L67.7892 49.5807L68.3028 49.4095L68.4402 48.8857L67.4729 48.632ZM73.3369 43.432C73.3369 47.0949 72.5259 49.5426 71.1196 51.0075L72.5623 52.3925C74.484 50.3908 75.3369 47.3264 75.3369 43.432H73.3369ZM71.1193 51.0078C69.7888 52.3948 67.1226 53.248 62.7409 53.248V55.248C67.2339 55.248 70.6344 54.4025 72.5626 52.3922L71.1193 51.0078ZM62.7409 53.248C58.4451 53.248 55.2291 52.2744 52.9683 50.4532L51.7136 52.0108C54.4448 54.2109 58.1621 55.248 62.7409 55.248V53.248ZM53.3199 51.028C52.8136 48.5977 52.5609 46.17 52.5609 43.744H50.5609C50.5609 46.31 50.8283 48.8743 51.362 51.436L53.3199 51.028ZM52.5609 43.744C52.5609 41.3415 52.8944 39.1044 53.5541 37.0266L51.6478 36.4214C50.9208 38.7116 50.5609 41.1545 50.5609 43.744H52.5609ZM53.5511 37.0358C54.2559 34.8877 55.1189 33.0888 56.1284 31.6233L54.4814 30.4887C53.3417 32.1432 52.4019 34.123 51.6508 36.4122L53.5511 37.0358ZM56.1217 31.633C58.3559 28.4708 60.2461 26.6204 61.7771 25.8699L60.8968 24.0741C58.8918 25.0569 56.7607 27.2626 54.4882 30.479L56.1217 31.633ZM60.8823 25.8627C64.0924 27.5012 66.9208 29.7255 69.3701 32.544L70.8797 31.232C68.2678 28.2265 65.2375 25.8402 61.7916 24.0813L60.8823 25.8627ZM69.3744 32.5488C72.0113 35.5439 73.3369 39.1526 73.3369 43.432H75.3369C75.3369 38.6981 73.8545 34.6108 70.8755 31.2272L69.3744 32.5488ZM69.3049 42.028C69.3049 38.5894 68.5798 35.417 67.1171 32.5283L65.3328 33.4317C66.6434 36.0203 67.3049 38.8799 67.3049 42.028H69.3049ZM65.7566 32.0965C62.7 33.7168 60.1979 36.1762 58.2434 39.4335L59.9584 40.4625C61.748 37.4798 63.9952 35.2939 66.6933 33.8635L65.7566 32.0965ZM58.2434 39.4335C56.2916 42.6866 55.2929 46.017 55.2929 49.412H57.2929C57.2929 46.4283 58.1663 43.4494 59.9584 40.4625L58.2434 39.4335ZM56.1087 50.3949C57.3096 50.6201 58.9775 50.724 61.0769 50.724V48.724C59.0164 48.724 57.4949 48.6199 56.4772 48.4291L56.1087 50.3949ZM61.0769 50.724C63.2752 50.724 65.514 50.3391 67.7892 49.5807L67.1567 47.6833C65.0639 48.3809 63.0386 48.724 61.0769 48.724V50.724ZM68.4402 48.8857C69.0176 46.6845 69.3049 44.3976 69.3049 42.028H67.3049C67.3049 44.2344 67.0376 46.3502 66.5057 48.3783L68.4402 48.8857ZM103.201 26.116L103.974 25.4807L103.791 25.2584L103.518 25.1673L103.201 26.116ZM106.841 37.296L105.849 37.4192L105.849 37.42L106.841 37.296ZM107.829 53L107.912 53.9965L108.829 53.9201V53H107.829ZM98.4694 53.78H97.4694V54.8668L98.5525 54.7765L98.4694 53.78ZM97.5854 31.992L98.5814 31.9024L98.4645 30.6024L97.2397 31.0537L97.5854 31.992ZM88.3814 53.312L88.4719 54.3079L89.2763 54.2348L89.3741 53.433L88.3814 53.312ZM83.2334 53.78L82.2361 53.8529L82.3102 54.868L83.3239 54.7759L83.2334 53.78ZM80.5814 17.484L80.429 16.4957L79.5168 16.6363L79.5841 17.5569L80.5814 17.484ZM91.7094 15.768L92.7054 15.8574L92.8197 14.585L91.557 14.7797L91.7094 15.768ZM89.7854 37.192L88.7894 37.1026L88.6916 38.192H89.7854V37.192ZM90.2534 37.192V38.192H90.9267L91.18 37.5681L90.2534 37.192ZM95.2454 28.872L94.5201 28.1835L94.5139 28.1901L95.2454 28.872ZM101.329 26.804C101.84 26.804 102.358 26.8888 102.885 27.0647L103.518 25.1673C102.797 24.9272 102.067 24.804 101.329 24.804V26.804ZM102.429 26.7513C104.009 28.6719 105.196 32.1581 105.849 37.4192L107.834 37.1728C107.17 31.8259 105.93 27.8587 103.974 25.4807L102.429 26.7513ZM105.849 37.42C106.503 42.6491 106.829 47.8423 106.829 53H108.829C108.829 47.7577 108.497 42.4816 107.834 37.172L105.849 37.42ZM107.746 52.0035L98.3864 52.7835L98.5525 54.7765L107.912 53.9965L107.746 52.0035ZM99.4694 53.78C99.4694 45.7828 99.1739 38.4896 98.5814 31.9024L96.5894 32.0816C97.1756 38.5984 97.4694 45.8306 97.4694 53.78H99.4694ZM97.2397 31.0537C94.562 32.0402 92.4899 34.5361 90.9083 38.1996C89.3202 41.8782 88.1567 46.8904 87.3888 53.191L89.3741 53.433C90.1314 47.219 91.2646 42.4204 92.7445 38.9923C94.2309 35.5492 95.9981 33.6425 97.9311 32.9303L97.2397 31.0537ZM88.2909 52.3161L83.1429 52.7841L83.3239 54.7759L88.4719 54.3079L88.2909 52.3161ZM84.2308 53.7071L81.5787 17.4111L79.5841 17.5569L82.2361 53.8529L84.2308 53.7071ZM80.7338 18.4723L91.8618 16.7563L91.557 14.7797L80.429 16.4957L80.7338 18.4723ZM90.7134 15.6786L88.7894 37.1026L90.7814 37.2814L92.7054 15.8574L90.7134 15.6786ZM89.7854 38.192H90.2534V36.192H89.7854V38.192ZM91.18 37.5681C92.5705 34.1426 94.1769 31.4848 95.9769 29.5539L94.5139 28.1901C92.5006 30.3499 90.7789 33.2388 89.3268 36.8159L91.18 37.5681ZM95.9707 29.5604C97.7888 27.6449 99.5716 26.804 101.329 26.804V24.804C98.8579 24.804 96.5847 26.0084 94.5201 28.1836L95.9707 29.5604ZM123.847 24.972L124.219 24.0438L123.779 23.8672L123.364 24.0968L123.847 24.972ZM134.195 43.172L134.813 43.9583L134.816 43.9564L134.195 43.172ZM119.791 44.316L120.019 43.3423L119.185 43.1471L118.864 43.9412L119.791 44.316ZM118.803 49.412H117.803V50.2875L118.671 50.4032L118.803 49.412ZM134.299 48.008L135.255 47.7125L134.946 46.7137L133.962 47.0667L134.299 48.008ZM135.859 53.052L136.16 54.0058L137.109 53.7069L136.815 52.7565L135.859 53.052ZM114.955 51.18L113.98 51.3998L114.059 51.7499L114.342 51.9699L114.955 51.18ZM116.983 32.408L116.109 31.9231L116.105 31.9298L116.983 32.408ZM120.831 41.872L119.963 41.3768L119.181 42.748L120.755 42.8691L120.831 41.872ZM130.503 41.196L130.705 42.1755L131.383 42.0358L131.491 41.352L130.503 41.196ZM128.943 33.24L129.801 32.7255L129.261 31.8262L128.389 32.4079L128.943 33.24ZM123.475 25.9002C131.812 29.2419 135.431 33.1849 135.431 37.504H137.431C137.431 31.8391 132.661 27.4274 124.219 24.0438L123.475 25.9002ZM135.431 37.504C135.431 39.918 134.746 41.4622 133.575 42.3876L134.816 43.9564C136.627 42.5245 137.431 40.29 137.431 37.504H135.431ZM133.578 42.3857C133.016 42.8272 132.136 43.2115 130.857 43.4804C129.586 43.7475 127.983 43.888 126.031 43.888V45.888C128.067 45.888 129.818 45.7425 131.268 45.4376C132.71 45.1345 133.919 44.6608 134.813 43.9583L133.578 42.3857ZM126.031 43.888C123.543 43.888 121.546 43.6997 120.019 43.3423L119.564 45.2897C121.295 45.695 123.459 45.888 126.031 45.888V43.888ZM118.864 43.9412C118.157 45.6904 117.803 47.5163 117.803 49.412H119.803C119.803 47.7717 120.108 46.2003 120.719 44.6908L118.864 43.9412ZM118.671 50.4032C120.284 50.6183 122.098 50.724 124.107 50.724V48.724C122.165 48.724 120.442 48.6217 118.936 48.4208L118.671 50.4032ZM124.107 50.724C127.82 50.724 131.333 50.1346 134.637 48.9493L133.962 47.0667C130.888 48.1694 127.605 48.724 124.107 48.724V50.724ZM133.344 48.3035L134.904 53.3475L136.815 52.7565L135.255 47.7125L133.344 48.3035ZM135.559 52.0982C133.142 52.8598 130.403 53.248 127.331 53.248V55.248C130.569 55.248 133.516 54.8389 136.16 54.0058L135.559 52.0982ZM127.331 53.248C121.799 53.248 117.943 52.2337 115.569 50.3901L114.342 51.9699C117.237 54.217 121.632 55.248 127.331 55.248V53.248ZM115.931 50.9602C115.39 48.5601 115.123 46.3117 115.123 44.212H113.123C113.123 46.4803 113.411 48.8772 113.98 51.3998L115.931 50.9602ZM115.123 44.212C115.123 39.9947 116.042 36.2271 117.862 32.8862L116.105 31.9298C114.111 35.5915 113.123 39.6933 113.123 44.212H115.123ZM117.858 32.8929C119.738 29.503 121.907 27.1871 124.331 25.8472L123.364 24.0968C120.519 25.6689 118.112 28.3104 116.109 31.9231L117.858 32.8929ZM120.755 42.8691C121.252 42.9073 122.423 42.924 124.211 42.924V40.924C122.394 40.924 121.312 40.906 120.908 40.8749L120.755 42.8691ZM124.211 42.924C126.134 42.924 128.301 42.6705 130.705 42.1755L130.302 40.2165C127.992 40.6922 125.964 40.924 124.211 40.924V42.924ZM131.491 41.352C131.603 40.6423 131.659 39.9315 131.659 39.22H129.659C129.659 39.8258 129.612 40.4323 129.516 41.04L131.491 41.352ZM131.659 39.22C131.659 36.9462 131.031 34.7764 129.801 32.7255L128.086 33.7545C129.143 35.5169 129.659 37.3338 129.659 39.22H131.659ZM128.389 32.4079C124.832 34.7793 122.018 37.7703 119.963 41.3768L121.7 42.3672C123.597 39.0404 126.191 36.2767 129.498 34.072L128.389 32.4079ZM145.021 54.144L144.46 54.9723L144.659 55.1066L144.897 55.1363L145.021 54.144ZM142.161 50.608L141.244 51.0067L141.249 51.0189L141.255 51.0309L142.161 50.608ZM143.617 40.832L143.107 39.9714L143.1 39.9761L143.617 40.832ZM158.125 39.688L157.991 40.6791L159.234 40.8464L159.121 39.5975L158.125 39.688ZM158.021 38.544L159.017 38.4535L159.016 38.4445L158.021 38.544ZM156.045 35.268L155.468 36.085L155.476 36.0907L155.484 36.0963L156.045 35.268ZM146.009 35.736L145.052 36.0264L145.43 37.2741L146.537 36.5849L146.009 35.736ZM143.721 28.196L143.344 27.2698L142.499 27.6136L142.764 28.4864L143.721 28.196ZM162.961 28.976L162.345 29.7641L162.353 29.77L162.961 28.976ZM166.185 38.96L165.195 38.8186L165.192 38.8388L165.19 38.8591L166.185 38.96ZM164.729 53.312L164.819 54.3079L165.64 54.2332L165.724 53.4129L164.729 53.312ZM159.581 53.78L158.586 53.8829L158.688 54.8653L159.671 54.7759L159.581 53.78ZM158.801 46.24L159.795 46.1371L159.703 45.24H158.801V46.24ZM158.385 46.24V45.24H157.751L157.481 45.813L158.385 46.24ZM153.497 52.116L154.052 52.9481L154.061 52.9416L153.497 52.116ZM158.333 41.872L159.28 42.1936L159.72 40.898L158.352 40.8722L158.333 41.872ZM155.577 41.82L155.596 40.8202L155.586 40.82H155.577V41.82ZM149.961 42.184L149.796 41.1976L149.294 41.2813L149.066 41.7368L149.961 42.184ZM150.221 48.372L149.514 49.0791L149.874 49.4394L150.377 49.3597L150.221 48.372ZM146.321 53.196C145.738 53.196 145.357 53.1782 145.145 53.1517L144.897 55.1363C145.239 55.1791 145.725 55.196 146.321 55.196V53.196ZM145.581 53.3157C144.581 52.6391 143.735 51.6156 143.067 50.1851L141.255 51.0309C142.043 52.7204 143.103 54.0542 144.46 54.9723L145.581 53.3157ZM143.078 50.2093C142.438 48.7374 142.121 47.2262 142.121 45.668H140.121C140.121 47.5071 140.497 49.2893 141.244 51.0067L143.078 50.2093ZM142.121 45.668C142.121 43.7407 142.817 42.4837 144.134 41.6879L143.1 39.9761C141.089 41.191 140.121 43.158 140.121 45.668H142.121ZM144.126 41.6926C144.823 41.28 145.885 40.9299 147.378 40.6881C148.859 40.4482 150.704 40.324 152.925 40.324V38.324C150.639 38.324 148.679 38.4512 147.058 38.7139C145.448 38.9748 144.109 39.3787 143.107 39.9714L144.126 41.6926ZM152.925 40.324C154.54 40.324 156.229 40.4418 157.991 40.6791L158.258 38.6969C156.415 38.4489 154.637 38.324 152.925 38.324V40.324ZM159.121 39.5975L159.017 38.4535L157.025 38.6345L157.129 39.7785L159.121 39.5975ZM159.016 38.4445C158.847 36.7553 158.024 35.3993 156.605 34.4397L155.484 36.0963C156.423 36.7313 156.917 37.5594 157.026 38.6435L159.016 38.4445ZM156.621 34.451C155.233 33.471 153.508 33.02 151.521 33.02V35.02C153.208 35.02 154.499 35.401 155.468 36.085L156.621 34.451ZM151.521 33.02C149.466 33.02 147.448 33.6622 145.48 34.8871L146.537 36.5849C148.245 35.5218 149.901 35.02 151.521 35.02V33.02ZM146.966 35.4456L144.678 27.9056L142.764 28.4864L145.052 36.0264L146.966 35.4456ZM144.098 29.1222C146.939 27.9657 150.205 27.376 153.913 27.376V25.376C149.994 25.376 146.465 25.9996 143.344 27.2698L144.098 29.1222ZM153.913 27.376C157.581 27.376 160.355 28.2096 162.345 29.764L163.576 28.188C161.129 26.2757 157.871 25.376 153.913 25.376V27.376ZM162.353 29.77C164.253 31.2247 165.289 33.5526 165.289 36.984H167.289C167.289 33.1354 166.106 30.1246 163.569 28.182L162.353 29.77ZM165.289 36.984C165.289 37.7964 165.254 38.4012 165.195 38.8186L167.175 39.1014C167.254 38.5481 167.289 37.8356 167.289 36.984H165.289ZM165.19 38.8591L163.734 53.2111L165.724 53.4129L167.18 39.0609L165.19 38.8591ZM164.638 52.3161L159.49 52.7841L159.671 54.7759L164.819 54.3079L164.638 52.3161ZM160.575 53.6771L159.795 46.1371L157.806 46.3429L158.586 53.8829L160.575 53.6771ZM158.801 45.24H158.385V47.24H158.801V45.24ZM157.481 45.813C156.37 48.1641 154.852 49.9788 152.933 51.2904L154.061 52.9416C156.302 51.4106 158.042 49.3079 159.289 46.667L157.481 45.813ZM152.942 51.284C151.04 52.5521 148.844 53.196 146.321 53.196V55.196C149.205 55.196 151.794 54.4532 154.051 52.9481L152.942 51.284ZM158.352 40.8722L155.596 40.8202L155.558 42.8198L158.314 42.8718L158.352 40.8722ZM155.577 40.82C153.26 40.82 151.328 40.9424 149.796 41.1976L150.125 43.1704C151.506 42.9403 153.317 42.82 155.577 42.82V40.82ZM149.066 41.7368C148.539 42.7915 148.233 43.8146 148.233 44.784H150.233C150.233 44.2281 150.412 43.5179 150.855 42.6312L149.066 41.7368ZM148.233 44.784C148.233 45.6388 148.35 46.4639 148.587 47.2553L150.503 46.6807C150.324 46.0854 150.233 45.4546 150.233 44.784H148.233ZM148.587 47.2553C148.801 47.9682 149.082 48.6478 149.514 49.0791L150.928 47.6649C150.874 47.6108 150.705 47.3545 150.503 46.6807L148.587 47.2553ZM150.377 49.3597C152.592 49.009 154.48 48.2466 155.994 47.0334C157.512 45.8169 158.602 44.189 159.28 42.1936L157.386 41.5504C156.816 43.2296 155.929 44.5224 154.743 45.4726C153.554 46.4261 152.01 47.0763 150.064 47.3843L150.377 49.3597ZM182.153 26.324L183.138 26.1542L182.971 25.1859L182 25.3357L182.153 26.324ZM185.585 46.24L184.599 46.4098L184.742 47.24H185.585V46.24ZM186.001 46.24V47.24H186.717L186.948 46.5615L186.001 46.24ZM192.709 26.48L192.971 25.515L192.064 25.2686L191.762 26.1585L192.709 26.48ZM196.921 27.624L197.85 27.9938L198.264 26.9527L197.183 26.659L196.921 27.624ZM186.781 53.104L186.939 54.0914L187.5 54.0014L187.71 53.4738L186.781 53.104ZM182.569 53.78L181.656 54.1892L181.97 54.8889L182.727 54.7674L182.569 53.78ZM171.025 28.04L170.872 27.0517L169.575 27.2517L170.112 28.4492L171.025 28.04ZM181.167 26.4938L184.599 46.4098L186.57 46.0702L183.138 26.1542L181.167 26.4938ZM185.585 47.24H186.001V45.24H185.585V47.24ZM186.948 46.5615L193.656 26.8015L191.762 26.1585L185.054 45.9185L186.948 46.5615ZM192.447 27.445L196.659 28.589L197.183 26.659L192.971 25.515L192.447 27.445ZM195.992 27.2542L185.852 52.7342L187.71 53.4738L197.85 27.9938L195.992 27.2542ZM186.622 52.1166L182.41 52.7926L182.727 54.7674L186.939 54.0914L186.622 52.1166ZM183.481 53.3708L171.937 27.6308L170.112 28.4492L181.656 54.1892L183.481 53.3708ZM171.177 29.0283L182.305 27.3123L182 25.3357L170.872 27.0517L171.177 29.0283ZM210.785 24.972L211.157 24.0438L210.717 23.8672L210.301 24.0968L210.785 24.972ZM221.133 43.172L221.751 43.9583L221.753 43.9564L221.133 43.172ZM206.729 44.316L206.957 43.3423L206.123 43.1471L205.802 43.9412L206.729 44.316ZM205.741 49.412H204.741V50.2875L205.609 50.4032L205.741 49.412ZM221.237 48.008L222.192 47.7125L221.883 46.7137L220.899 47.0667L221.237 48.008ZM222.797 53.052L223.097 54.0058L224.046 53.7069L223.752 52.7565L222.797 53.052ZM201.893 51.18L200.917 51.3998L200.996 51.7499L201.28 51.9699L201.893 51.18ZM203.921 32.408L203.046 31.9231L203.043 31.9298L203.921 32.408ZM207.769 41.872L206.9 41.3768L206.119 42.748L207.692 42.8691L207.769 41.872ZM217.441 41.196L217.643 42.1755L218.321 42.0358L218.429 41.352L217.441 41.196ZM215.881 33.24L216.738 32.7255L216.199 31.8262L215.326 32.4079L215.881 33.24ZM210.413 25.9002C218.75 29.2419 222.369 33.1849 222.369 37.504H224.369C224.369 31.8391 219.599 27.4274 211.157 24.0438L210.413 25.9002ZM222.369 37.504C222.369 39.918 221.683 41.4622 220.513 42.3876L221.753 43.9564C223.564 42.5245 224.369 40.29 224.369 37.504H222.369ZM220.515 42.3857C219.953 42.8272 219.074 43.2115 217.794 43.4804C216.523 43.7475 214.92 43.888 212.969 43.888V45.888C215.004 45.888 216.755 45.7425 218.206 45.4376C219.648 45.1345 220.857 44.6608 221.751 43.9583L220.515 42.3857ZM212.969 43.888C210.48 43.888 208.484 43.6997 206.957 43.3423L206.501 45.2897C208.233 45.695 210.396 45.888 212.969 45.888V43.888ZM205.802 43.9412C205.095 45.6904 204.741 47.5163 204.741 49.412H206.741C206.741 47.7717 207.046 46.2003 207.656 44.6908L205.802 43.9412ZM205.609 50.4032C207.222 50.6183 209.035 50.724 211.045 50.724V48.724C209.103 48.724 207.38 48.6217 205.873 48.4208L205.609 50.4032ZM211.045 50.724C214.758 50.724 218.27 50.1346 221.575 48.9493L220.899 47.0667C217.825 48.1694 214.543 48.724 211.045 48.724V50.724ZM220.282 48.3035L221.842 53.3475L223.752 52.7565L222.192 47.7125L220.282 48.3035ZM222.496 52.0982C220.079 52.8598 217.34 53.248 214.269 53.248V55.248C217.507 55.248 220.453 54.8389 223.097 54.0058L222.496 52.0982ZM214.269 53.248C208.737 53.248 204.881 52.2337 202.506 50.3901L201.28 51.9699C204.174 54.217 208.569 55.248 214.269 55.248V53.248ZM202.868 50.9602C202.328 48.5601 202.061 46.3117 202.061 44.212H200.061C200.061 46.4803 200.349 48.8772 200.917 51.3998L202.868 50.9602ZM202.061 44.212C202.061 39.9947 202.98 36.2271 204.799 32.8862L203.043 31.9298C201.049 35.5915 200.061 39.6933 200.061 44.212H202.061ZM204.796 32.8929C206.675 29.503 208.844 27.1871 211.269 25.8472L210.301 24.0968C207.456 25.6689 205.049 28.3104 203.046 31.9231L204.796 32.8929ZM207.692 42.8691C208.19 42.9073 209.361 42.924 211.149 42.924V40.924C209.332 40.924 208.249 40.906 207.846 40.8749L207.692 42.8691ZM211.149 42.924C213.071 42.924 215.238 42.6705 217.643 42.1755L217.239 40.2165C214.929 40.6922 212.901 40.924 211.149 40.924V42.924ZM218.429 41.352C218.541 40.6423 218.597 39.9315 218.597 39.22H216.597C216.597 39.8258 216.549 40.4323 216.453 41.04L218.429 41.352ZM218.597 39.22C218.597 36.9462 217.969 34.7764 216.738 32.7255L215.023 33.7545C216.081 35.5169 216.597 37.3338 216.597 39.22H218.597ZM215.326 32.4079C211.769 34.7793 208.956 37.7703 206.9 41.3768L208.638 42.3672C210.534 39.0404 213.129 36.2767 216.436 34.072L215.326 32.4079ZM252.238 26.116L253.011 25.4807L252.828 25.2584L252.555 25.1673L252.238 26.116ZM255.878 37.296L254.886 37.4192L254.886 37.42L255.878 37.296ZM256.866 53L256.949 53.9965L257.866 53.9201V53H256.866ZM247.506 53.78H246.506V54.8668L247.589 54.7765L247.506 53.78ZM246.622 31.992L247.618 31.9024L247.501 30.6024L246.277 31.0537L246.622 31.992ZM237.418 53.312L237.509 54.3079L238.313 54.2348L238.411 53.433L237.418 53.312ZM232.27 53.78L231.276 53.8823L231.377 54.8654L232.361 54.7759L232.27 53.78ZM229.618 27.988L229.466 26.9997L228.526 27.1446L228.624 28.0903L229.618 27.988ZM240.746 26.272L241.739 26.396L241.903 25.0818L240.594 25.2837L240.746 26.272ZM239.602 35.424L238.61 35.3L238.469 36.424H239.602V35.424ZM240.07 35.424V36.424H240.711L240.979 35.8417L240.07 35.424ZM244.802 28.352L244.109 27.6309L244.802 28.352ZM250.314 26.804C250.866 26.804 251.4 26.8907 251.922 27.0647L252.555 25.1673C251.828 24.9253 251.08 24.804 250.314 24.804V26.804ZM251.466 26.7513C253.046 28.6719 254.233 32.1581 254.886 37.4192L256.871 37.1728C256.207 31.8259 254.967 27.8587 253.011 25.4807L251.466 26.7513ZM254.886 37.42C255.54 42.6491 255.866 47.8423 255.866 53H257.866C257.866 47.7577 257.534 42.4816 256.871 37.172L254.886 37.42ZM256.783 52.0035L247.423 52.7835L247.589 54.7765L256.949 53.9965L256.783 52.0035ZM248.506 53.78C248.506 45.7828 248.211 38.4896 247.618 31.9024L245.626 32.0816C246.212 38.5984 246.506 45.8306 246.506 53.78H248.506ZM246.277 31.0537C243.599 32.0402 241.527 34.5361 239.945 38.1996C238.357 41.8782 237.194 46.8904 236.426 53.191L238.411 53.433C239.168 47.219 240.301 42.4204 241.781 38.9923C243.268 35.5492 245.035 33.6425 246.968 32.9303L246.277 31.0537ZM237.328 52.3161L232.18 52.7841L232.361 54.7759L237.509 54.3079L237.328 52.3161ZM233.265 53.6777L230.613 27.8857L228.624 28.0903L231.276 53.8823L233.265 53.6777ZM229.771 28.9763L240.899 27.2603L240.594 25.2837L229.466 26.9997L229.771 28.9763ZM239.754 26.148L238.61 35.3L240.595 35.548L241.739 26.396L239.754 26.148ZM239.602 36.424H240.07V34.424H239.602V36.424ZM240.979 35.8417C242.331 32.9017 243.843 30.6603 245.495 29.0731L244.109 27.6309C242.225 29.441 240.583 31.9143 239.162 35.0063L240.979 35.8417ZM245.495 29.0731C247.132 27.5002 248.734 26.804 250.314 26.804V24.804C248.082 24.804 246.008 25.8065 244.109 27.6309L245.495 29.0731Z" fill="black" mask="url(#path-2-outside-1_2_6)"/>
</svg>
