<svg width="152" height="104" viewBox="0 0 152 104" fill="none" xmlns="http://www.w3.org/2000/svg">
<path d="M131 16.5C113.5 -4.99999 71 0.333342 57.5 4.00001C29 14.5 24 29.5 25.5 44C27 58.5 22 95 77 95C115 108.5 131 91 144.5 67.5C158 44 148.5 38 131 16.5Z" stroke="black"/>
<path d="M106.738 19.8906C89.2381 -1.6094 46.7381 3.72394 33.2381 7.3906C4.73808 17.8906 -0.261918 32.8906 1.23808 47.3906C2.73808 61.8906 -2.26193 98.3906 52.7381 98.3906C90.7381 111.891 106.738 94.3906 120.238 70.8906C133.738 47.3906 124.238 41.3906 106.738 19.8906Z" stroke="black"/>
</svg>
